<svg id="Layer_1" data-name="Layer 1" xmlns="http://www.w3.org/2000/svg" viewBox="0 0 2500 2500"><defs><style>.cls-1{fill:#00c17b;}.cls-2{fill:#141413;}</style></defs><path class="cls-1" d="M225.94,448.16H520.11c199.75,0,297.81,110.76,297.81,314.14V887.6c0,203.38-98.06,314.14-297.81,314.14H425.69v517.53H225.94Zm294.17,572c63.56,0,98.06-29.06,98.06-119.85V749.59c0-90.79-34.5-119.85-98.06-119.85H425.69v390.42Z"/><path class="cls-2" d="M490.1,1352.11h58.28v370.83H490.1Z"/><path class="cls-2" d="M635.36,1534.64,574,1354.38h58.79l37.5,119.12h1l38.52-119.12h52.71l-61.33,180.26,64.37,188.69H706.81l-40.55-128.6h-1l-41.56,128.6H571Z"/><path class="cls-2" d="M791.92,1354.38H944v52.71H847.67v97.5h76.52v52.71H847.67v113.33H944v52.7h-152Z"/><path class="cls-2" d="M975.86,1354.38h55.75v316.25h91.72v52.7H975.86Z"/><path class="cls-1" d="M1075.18,1272.32h78.21c53.11,0,79.17,33.09,79.17,93.86v37.42c0,60.77-26.06,93.86-79.17,93.86h-25.11v154.63h-53.1Zm78.21,170.89c16.9,0,26.08-8.68,26.08-35.8v-45c0-27.13-9.18-35.82-26.08-35.82h-25.11v116.65Z"/><path class="cls-1" d="M1261.49,1272.32h144.83v54.24h-91.74v100.37h72.92v54.26h-72.92v116.64h91.74v54.26H1261.49Z"/><path class="cls-1" d="M1436.69,1272.32h78.69c55,0,78.7,28.75,78.7,87.34V1383c0,39.08-11.1,64-34.76,74.88v1.08c26.56,9.23,35.25,37.44,35.25,80.31V1606c0,18.44.48,32,5.78,46.11h-54.07c-2.89-9.77-4.83-15.74-4.83-46.65V1536c0-35.27-9.17-46.66-33.31-46.66h-18.35v162.76h-53.1Zm72.41,162.76c19.8,0,31.88-9.77,31.88-40.15v-29.29c0-27.13-8.21-39.08-27-39.08h-24.15v108.52Z"/><path class="cls-1" d="M1631.21,1272.32H1771.7v54.24h-87.39v105.81h68.56v54.24h-68.56v165.48h-53.1Z"/><path class="cls-1" d="M1789.37,1357.52h131.24v42.08h-83.12v77.85h66.07v42.08h-66.07V1610h83.12v42.09H1789.37Z"/><path class="cls-1" d="M1956.65,1589.79v-192c0-55.15,27-87.83,78.23-87.83s78.21,32.68,78.21,87.83v37.8h-50.21v-41.37c0-23.49-10.63-33.19-26.56-33.19s-26.55,9.7-26.55,33.19v199.67c0,23.48,10.62,32.68,26.55,32.68s26.56-9.2,26.56-32.68v-54.65h50.21v50.56c0,55.16-27,87.84-78.21,87.84S1956.65,1645,1956.65,1589.79Z"/><path class="cls-1" d="M2186.42,1341.58H2130.9v-51.74h164.16v51.74h-55.52v310.51h-53.12Z"/><path class="cls-1" d="M488.8,1267.73v61.36H550v-61.36Zm38.45,40.21H507.86v-19.38h19.39Z"/><path class="cls-2" d="M499.05,1279.74v37h37v-37Zm28.2,28.2H507.86v-19.38h19.39Z"/><path class="cls-2" d="M1787.37,1267.77v-20.48l84.71-36.55v22.14l-58.41,24.64,58.41,24.64v22.15Z"/><path class="cls-2" d="M1968,1160.64h24.19L1921.91,1339h-24.2Z"/><path class="cls-2" d="M2009.7,1282.16l58.41-24.64-58.41-24.64v-22.14l84.71,36.55v20.48l-84.71,36.54Z"/></svg>